<?xml version="1.0" encoding="UTF-8"?>
<svg xmlns="http://www.w3.org/2000/svg" width="32" height="32" viewBox="0 0 32 32">
  <!-- Fond circulaire -->
  <circle cx="16" cy="16" r="16" fill="#0288D1"/>
  
  <!-- Corps du poulpe -->
  <circle cx="16" cy="14" r="8" fill="#E91E63"/>
  
  <!-- Yeux -->
  <circle cx="13" cy="12" r="2" fill="white"/>
  <circle cx="19" cy="12" r="2" fill="white"/>
  <circle cx="13" cy="12" r="1" fill="black"/>
  <circle cx="19" cy="12" r="1" fill="black"/>
  
  <!-- Tentacules -->
  <path d="M10 16 C8 18, 6 22, 4 26" stroke="#E91E63" stroke-width="1.5" stroke-linecap="round"/>
  <path d="M12 18 C11 21, 9 24, 8 28" stroke="#E91E63" stroke-width="1.5" stroke-linecap="round"/>
  <path d="M14 19 C14 22, 13 26, 12 29" stroke="#E91E63" stroke-width="1.5" stroke-linecap="round"/>
  <path d="M18 19 C18 22, 19 26, 20 29" stroke="#E91E63" stroke-width="1.5" stroke-linecap="round"/>
  <path d="M20 18 C21 21, 23 24, 24 28" stroke="#E91E63" stroke-width="1.5" stroke-linecap="round"/>
  <path d="M22 16 C24 18, 26 22, 28 26" stroke="#E91E63" stroke-width="1.5" stroke-linecap="round"/>
  
  <!-- Sourire -->
  <path d="M13 15 C14 16, 18 16, 19 15" stroke="white" stroke-width="0.8" stroke-linecap="round"/>
</svg> 